# xmcd
#
# Track frame offsets:
#	150
#	29437
#	47164
#	64889
#	77812
#	93593
#	114329
#	125808
#	138931
#	152187
#	167370
#	186593
#	197225
#	220749
#	235638
#	251609
#	274924
#	299186
#	309298
#
# Disc length: 4377 seconds
#
# Revision: 2
# Processed by: cddbd v1.5.1PL0 Copyright (c) Steve Scherf et al.
# Submitted via: CDmax 2.0
#
DISCID=20111713
DTITLE=Richard Weihs - Böses Lied Gut
DYEAR=1900
DGENRE=Blues
TTITLE0=Simmering Heart
TTITLE1=Für immer dumm
TTITLE2=Die Füzlaus
TTITLE3=Bussi-Boogie
TTITLE4=O Leib voll Blut und Säften
TTITLE5=Rammlschnoiza-Woiza
TTITLE6=Da Dokta
TTITLE7=Da King vom Rock'n Roll
TTITLE8=Friß die Krot!
TTITLE9=Gams-Jodler
TTITLE10=Schene Gene
TTITLE11=Nia wana
TTITLE12=Krematorium Blues
TTITLE13=Drahra Blues
TTITLE14=Dreckiches Wien
TTITLE15=Uaoag!
TTITLE16=Schattn-Liad
TTITLE17=Ringlgschpü
TTITLE18=Donaukanal-Walzer
EXTD=
EXTT0=
EXTT1=
EXTT2=
EXTT3=
EXTT4=
EXTT5=
EXTT6=
EXTT7=
EXTT8=
EXTT9=
EXTT10=
EXTT11=
EXTT12=
EXTT13=
EXTT14=
EXTT15=
EXTT16=
EXTT17=
EXTT18=
PLAYORDER=
